<svg width="40" height="40" viewBox="0 0 40 40" fill="none" xmlns="http://www.w3.org/2000/svg">
<path fill-rule="evenodd" clip-rule="evenodd" d="M35 20C35 20.6904 34.4404 21.25 33.75 21.25L6.25 21.25C5.55965 21.25 5 20.6904 5 20C5 19.3096 5.55965 18.75 6.25 18.75L33.75 18.75C34.4404 18.75 35 19.3096 35 20Z" fill="#735AE1"/>
<path fill-rule="evenodd" clip-rule="evenodd" d="M18.3839 7.86612C18.872 8.35427 18.872 9.14573 18.3839 9.63388L8.01777 20L18.3839 30.3661C18.872 30.8543 18.872 31.6457 18.3839 32.1339C17.8957 32.622 17.1043 32.622 16.6161 32.1339L5.36612 20.8839C4.87796 20.3957 4.87796 19.6043 5.36612 19.1161L16.6161 7.86612C17.1043 7.37796 17.8957 7.37796 18.3839 7.86612Z" fill="#735AE1"/>
</svg>
