<svg width="35" height="35" viewBox="0 0 35 35" fill="none" xmlns="http://www.w3.org/2000/svg">
<path fill-rule="evenodd" clip-rule="evenodd" d="M27.01 0.410051C27.5568 -0.136684 28.4432 -0.136684 28.99 0.410051L34.5899 6.01004C35.1367 6.55678 35.1367 7.4432 34.5899 7.98994L17.79 24.7899C17.5274 25.0525 17.1713 25.2 16.8 25.2H11.2C10.4268 25.2 9.8 24.5732 9.8 23.8V18.2C9.8 17.8287 9.9475 17.4726 10.2101 17.21L27.01 0.410051ZM12.6 18.7799V22.4H16.2201L31.6201 6.99999L28 3.3799L12.6 18.7799Z" fill="white"/>
<path fill-rule="evenodd" clip-rule="evenodd" d="M22.81 4.61005C23.3568 4.06332 24.2432 4.06332 24.79 4.61005L30.3899 10.21C30.9367 10.7568 30.9367 11.6432 30.3899 12.1899C29.8432 12.7367 28.9568 12.7367 28.41 12.1899L22.81 6.58994C22.2633 6.04321 22.2633 5.15679 22.81 4.61005Z" fill="white"/>
<path fill-rule="evenodd" clip-rule="evenodd" d="M0.820102 2.2201C1.3452 1.695 2.05739 1.4 2.8 1.4H15.5201H18.0801H21.8C22.5732 1.4 23.2 2.0268 23.2 2.8C23.2 3.5732 22.5732 4.20001 21.8 4.20001H2.8V32.2H30.8V13.2025C30.8 12.4293 31.4268 11.8025 32.2 11.8025C32.9732 11.8025 33.6 12.4293 33.6 13.2025V16.92V19.48V32.2C33.6 32.9426 33.305 33.6548 32.7799 34.1799C32.2548 34.705 31.5426 35 30.8 35H18.08H15.52H2.8C2.0574 35 1.34521 34.705 0.820102 34.1799C0.295 33.6548 0 32.9426 0 32.2V19.48V16.92V4.20001C0 3.4574 0.295001 2.7452 0.820102 2.2201Z" fill="white"/>
<path fill-rule="evenodd" clip-rule="evenodd" d="M18.08 26.9492C18.08 26.3601 17.5069 25.8825 16.8 25.8825C16.0931 25.8825 15.52 26.3601 15.52 26.9492V35H18.08V26.9492Z" fill="white"/>
<path fill-rule="evenodd" clip-rule="evenodd" d="M26.8267 16.92C26.2376 16.92 25.76 17.4931 25.76 18.2C25.76 18.9069 26.2376 19.48 26.8267 19.48H33.6V16.92H26.8267Z" fill="white"/>
<path fill-rule="evenodd" clip-rule="evenodd" d="M0 19.48H8.05333C8.64243 19.48 9.12 18.9069 9.12 18.2C9.12 17.4931 8.64243 16.92 8.05333 16.92H0V19.48Z" fill="white"/>
<path fill-rule="evenodd" clip-rule="evenodd" d="M15.5201 1.4V8.17584C15.5201 8.76494 16.0931 9.24251 16.8001 9.24251C17.507 9.24251 18.0801 8.76494 18.0801 8.17584V1.4H15.5201Z" fill="white"/>
</svg>
