<svg width="35" height="35" viewBox="0 0 35 35" fill="none" xmlns="http://www.w3.org/2000/svg">
<path d="M17.5 0C12.8603 0.00509529 8.41204 1.85048 5.13126 5.13126C1.85048 8.41204 0.00509529 12.8603 0 17.5V32.2C0 32.9426 0.294999 33.6548 0.820101 34.1799C1.3452 34.705 2.05739 35 2.8 35H17.5C22.1413 35 26.5925 33.1563 29.8744 29.8744C33.1563 26.5925 35 22.1413 35 17.5C35 12.8587 33.1563 8.40752 29.8744 5.12563C26.5925 1.84374 22.1413 0 17.5 0ZM17.5 32.2H2.8V17.5C2.8 14.5926 3.66214 11.7505 5.2774 9.33312C6.89265 6.91571 9.18848 5.03158 11.8746 3.91897C14.5606 2.80636 17.5163 2.51525 20.3678 3.08246C23.2193 3.64966 25.8386 5.0497 27.8945 7.10553C29.9503 9.16136 31.3503 11.7807 31.9175 14.6322C32.4847 17.4837 32.1936 20.4394 31.081 23.1254C29.9684 25.8115 28.0843 28.1073 25.6669 29.7226C23.2495 31.3379 20.4074 32.2 17.5 32.2ZM19.6 18.2C19.6 18.6153 19.4768 19.0214 19.2461 19.3667C19.0153 19.712 18.6874 19.9812 18.3036 20.1401C17.9199 20.2991 17.4977 20.3407 17.0903 20.2596C16.683 20.1786 16.3088 19.9786 16.0151 19.6849C15.7214 19.3912 15.5214 19.017 15.4404 18.6097C15.3593 18.2023 15.4009 17.7801 15.5599 17.3964C15.7188 17.0126 15.988 16.6847 16.3333 16.4539C16.6786 16.2232 17.0847 16.1 17.5 16.1C18.057 16.1 18.5911 16.3212 18.9849 16.7151C19.3787 17.1089 19.6 17.643 19.6 18.2ZM11.9 18.2C11.9 18.6153 11.7768 19.0214 11.5461 19.3667C11.3153 19.712 10.9874 19.9812 10.6036 20.1401C10.2199 20.2991 9.79767 20.3407 9.39031 20.2596C8.98295 20.1786 8.60877 19.9786 8.31508 19.6849C8.02139 19.3912 7.82138 19.017 7.74035 18.6097C7.65932 18.2023 7.70091 17.7801 7.85985 17.3964C8.0188 17.0126 8.28796 16.6847 8.6333 16.4539C8.97865 16.2232 9.38466 16.1 9.8 16.1C10.357 16.1 10.8911 16.3212 11.2849 16.7151C11.6788 17.1089 11.9 17.643 11.9 18.2ZM27.3 18.2C27.3 18.6153 27.1768 19.0214 26.9461 19.3667C26.7153 19.712 26.3874 19.9812 26.0036 20.1401C25.6199 20.2991 25.1977 20.3407 24.7903 20.2596C24.383 20.1786 24.0088 19.9786 23.7151 19.6849C23.4214 19.3912 23.2214 19.017 23.1404 18.6097C23.0593 18.2023 23.1009 17.7801 23.2599 17.3964C23.4188 17.0126 23.688 16.6847 24.0333 16.4539C24.3786 16.2232 24.7847 16.1 25.2 16.1C25.757 16.1 26.2911 16.3212 26.6849 16.7151C27.0787 17.1089 27.3 17.643 27.3 18.2Z" fill="white"/>
</svg>
