<svg width="25" height="25" viewBox="0 0 25 25" fill="none" xmlns="http://www.w3.org/2000/svg">
<path fill-rule="evenodd" clip-rule="evenodd" d="M6.29468 9.41968C6.70148 9.01288 7.36102 9.01288 7.76782 9.41968L12.5 14.1519L17.2322 9.41968C17.639 9.01288 18.2985 9.01288 18.7053 9.41968C19.1121 9.82648 19.1121 10.486 18.7053 10.8928L13.2366 16.3616C12.8298 16.7684 12.1702 16.7684 11.7634 16.3616L6.29468 10.8928C5.88788 10.486 5.88788 9.82648 6.29468 9.41968Z" fill="white"/>
<path fill-rule="evenodd" clip-rule="evenodd" d="M12.5 0C13.0753 0 13.5417 0.46637 13.5417 1.04167V15.625C13.5417 16.2003 13.0753 16.6667 12.5 16.6667C11.9247 16.6667 11.4583 16.2003 11.4583 15.625V1.04167C11.4583 0.46637 11.9247 0 12.5 0Z" fill="white"/>
<path fill-rule="evenodd" clip-rule="evenodd" d="M1.04167 14.5833C1.61696 14.5833 2.08333 15.0497 2.08333 15.625V22.9167H22.9167V15.625C22.9167 15.0497 23.383 14.5833 23.9583 14.5833C24.5336 14.5833 25 15.0497 25 15.625V22.9167C25 23.4692 24.7805 23.9991 24.3898 24.3898C23.9991 24.7805 23.4692 25 22.9167 25H2.08333C1.5308 25 1.0009 24.7805 0.610194 24.3898C0.219493 23.9991 0 23.4692 0 22.9167V15.625C0 15.0497 0.46637 14.5833 1.04167 14.5833Z" fill="white"/>
</svg>
