<svg width="68" height="68" viewBox="0 0 68 68" fill="none" xmlns="http://www.w3.org/2000/svg">
<g filter="url(#filter0_d_146_1767)">
<rect x="4" width="60" height="60" rx="14" fill="url(#paint0_linear_146_1767)" shape-rendering="crispEdges"/>
<path fill-rule="evenodd" clip-rule="evenodd" d="M44.01 13.4101C44.5568 12.8633 45.4432 12.8633 45.99 13.4101L51.59 19.0101C52.1367 19.5568 52.1367 20.4432 51.59 20.9899L34.7899 37.7899C34.5274 38.0525 34.1713 38.2 33.8 38.2H28.2C27.4268 38.2 26.8 37.5732 26.8 36.8V31.2C26.8 30.8287 26.9475 30.4726 27.2101 30.2101L44.01 13.4101ZM29.6 31.7799V35.4H33.2201L48.6201 20L45 16.3799L29.6 31.7799Z" fill="white"/>
<path fill-rule="evenodd" clip-rule="evenodd" d="M39.81 17.6101C40.3568 17.0633 41.2432 17.0633 41.7899 17.6101L47.3899 23.2101C47.9367 23.7568 47.9367 24.6432 47.3899 25.1899C46.8432 25.7367 45.9568 25.7367 45.41 25.1899L39.81 19.5899C39.2633 19.0432 39.2633 18.1568 39.81 17.6101Z" fill="white"/>
<path fill-rule="evenodd" clip-rule="evenodd" d="M17.8201 15.2201C18.3452 14.695 19.0574 14.4 19.8 14.4H35.2C35.9732 14.4 36.6 15.0268 36.6 15.8C36.6 16.5732 35.9732 17.2 35.2 17.2L19.8 17.2L19.8 45.2H47.8V29.8C47.8 29.0268 48.4268 28.4 49.2 28.4C49.9732 28.4 50.6 29.0268 50.6 29.8V45.2C50.6 45.9426 50.305 46.6548 49.7799 47.1799C49.2548 47.705 48.5426 48 47.8 48H19.8C19.0574 48 18.3452 47.705 17.8201 47.1799C17.295 46.6548 17 45.9426 17 45.2V17.2C17 16.4574 17.295 15.7452 17.8201 15.2201Z" fill="white"/>
</g>
<defs>
<filter id="filter0_d_146_1767" x="0" y="0" width="68" height="68" filterUnits="userSpaceOnUse" color-interpolation-filters="sRGB">
<feFlood flood-opacity="0" result="BackgroundImageFix"/>
<feColorMatrix in="SourceAlpha" type="matrix" values="0 0 0 0 0 0 0 0 0 0 0 0 0 0 0 0 0 0 127 0" result="hardAlpha"/>
<feOffset dy="4"/>
<feGaussianBlur stdDeviation="2"/>
<feComposite in2="hardAlpha" operator="out"/>
<feColorMatrix type="matrix" values="0 0 0 0 0 0 0 0 0 0 0 0 0 0 0 0 0 0 0.25 0"/>
<feBlend mode="normal" in2="BackgroundImageFix" result="effect1_dropShadow_146_1767"/>
<feBlend mode="normal" in="SourceGraphic" in2="effect1_dropShadow_146_1767" result="shape"/>
</filter>
<linearGradient id="paint0_linear_146_1767" x1="4" y1="30" x2="64" y2="30" gradientUnits="userSpaceOnUse">
<stop stop-color="#A66EE0"/>
<stop offset="1" stop-color="#735AE1"/>
</linearGradient>
</defs>
</svg>
