<svg width="59" height="40" viewBox="0 0 59 40" fill="none" xmlns="http://www.w3.org/2000/svg">
<path fill-rule="evenodd" clip-rule="evenodd" d="M0.401465 1.09153C0.143876 1.50086 0.000359611 1.99021 0.000359611 2.50004C-2.04363e-05 2.01341 0.130239 1.52207 0.401465 1.09153ZM0.000359611 2.52923L0 2.5109L0.000359611 2.50004V2.52923ZM59 2.5291C59.0001 2.52284 58.9997 2.51709 58.9997 2.51084C58.9997 2.50814 58.9997 2.51354 58.9997 2.51084L59 2.5291ZM59 2.50001C59 1.99018 58.8565 1.50092 58.599 1.09159C58.8702 1.52214 59.0004 2.01338 59 2.50001Z" fill="black"/>
<path fill-rule="evenodd" clip-rule="evenodd" d="M0.401465 1.09153C0.143876 1.50086 0.000359611 1.99021 0.000359611 2.50004C-2.04363e-05 2.01341 0.130239 1.52207 0.401465 1.09153ZM0.000359611 2.52923L0 2.5109L0.000359611 2.50004V2.52923ZM59 2.5291C59.0001 2.52284 58.9997 2.51709 58.9997 2.51084C58.9997 2.50814 58.9997 2.51354 58.9997 2.51084L59 2.5291ZM59 2.50001C59 1.99018 58.8565 1.50092 58.599 1.09159C58.8702 1.52214 59.0004 2.01338 59 2.50001Z" fill="black"/>
<path d="M34 18.9998L54 2L5 2.00001L25.0003 18.9999L34 18.9998Z" fill="#735AE1"/>
<path d="M2.00034 2.00001V37L23.0003 20L2.00034 2.00001Z" fill="white"/>
<path d="M55.0003 38L4.00034 38L25.0003 20.9999L34 21L55.0003 38Z" fill="white"/>
<path d="M57.0003 2L36 20L57.0003 37V2Z" fill="white"/>
<path fill-rule="evenodd" clip-rule="evenodd" d="M0.000359611 2.50004C0.000359611 1.99021 0.143876 1.50086 0.401465 1.09153C0.42375 1.05612 0.446889 1.02131 0.470863 0.987139C0.860917 0.430603 1.42769 0.0989667 2.02506 0.0188331L2.05365 0.015368C2.07665 0.012176 2.10109 0.0116553 2.12523 0.0111407L2.14706 0.0106005L2.17407 0.00922168L2.31273 0.000277267L2.43919 -0.000174562L56.5003 0.00823025C57.2654 -0.0599129 58.0436 0.287365 58.5358 0.996087C58.5477 1.01323 58.5594 1.03058 58.571 1.04814C58.5805 1.06256 58.5898 1.07704 58.599 1.09159C58.8565 1.50092 59 1.99018 59 2.50001V2.5291V35C59 36.3261 58.5137 37.5979 57.6482 38.5355C56.7826 39.4732 55.6087 40 54.3846 40L4.61572 40C3.39165 40 2.21772 39.4733 1.35217 38.5356C0.486619 37.5979 0.000359611 36.3261 0.000359611 35V2.52923V2.50004ZM34 18.9998L54 2L5 2.00001L25.0003 18.9999L34 18.9998ZM2.00034 2.00001V37L23.0003 20L2.00034 2.00001ZM55.0003 38L4.00034 38L25.0003 20.9999L34 21L55.0003 38ZM57.0003 2L36 20L57.0003 37V2Z" fill="black"/>
</svg>
