<svg width="35" height="35" viewBox="0 0 35 35" fill="none" xmlns="http://www.w3.org/2000/svg">
<path fill-rule="evenodd" clip-rule="evenodd" d="M16.7533 0.244927C17.2055 -0.0816422 17.7945 -0.0816422 18.2467 0.244927L34.4005 11.9116C34.775 12.1821 34.9999 12.6374 34.9999 13.125V32.0833C34.9999 32.8569 34.7162 33.5987 34.2113 34.1457C33.7064 34.6927 33.0216 35 32.3076 35H2.6924C1.97836 35 1.29356 34.6927 0.788659 34.1457C0.283757 33.5987 0.000105268 32.8569 0.000105268 32.0833V13.125C0.000105268 12.6374 0.225048 12.1821 0.599544 11.9116L16.7533 0.244927ZM2.6924 13.9055V32.0833H32.3076V13.9055L17.5 3.21103L2.6924 13.9055Z" fill="white"/>
<path fill-rule="evenodd" clip-rule="evenodd" d="M15.6547 22.4918C16.0837 23.1496 15.9393 24.0596 15.3321 24.5244L2.54373 34.3134C1.93655 34.7782 1.09655 34.6217 0.667525 33.9639C0.238504 33.3062 0.382931 32.3962 0.990111 31.9314L13.7785 22.1423C14.3857 21.6775 15.2257 21.834 15.6547 22.4918Z" fill="white"/>
<path fill-rule="evenodd" clip-rule="evenodd" d="M19.3453 22.4918C19.7743 21.834 20.6143 21.6775 21.2215 22.1423L34.0099 31.9314C34.6171 32.3962 34.7615 33.3062 34.3325 33.9639C33.9035 34.6217 33.0634 34.7782 32.4563 34.3134L19.6679 24.5244C19.0607 24.0596 18.9163 23.1496 19.3453 22.4918Z" fill="white"/>
<path fill-rule="evenodd" clip-rule="evenodd" d="M0.250376 12.2781C0.682136 11.6224 1.52279 11.4701 2.12802 11.9378L14.9863 21.875H20.0138L32.872 11.9378C33.4772 11.4701 34.3179 11.6224 34.7496 12.2781C35.1814 12.9338 35.0408 13.8445 34.4355 14.3122L21.2265 24.5205C20.9983 24.6969 20.725 24.7917 20.4447 24.7917H14.5553C14.275 24.7917 14.0017 24.6969 13.7735 24.5205L0.56448 14.3122C-0.040755 13.8445 -0.181384 12.9338 0.250376 12.2781Z" fill="white"/>
</svg>
