<svg width="96" height="50" viewBox="0 0 96 50" fill="none" xmlns="http://www.w3.org/2000/svg">
<rect width="96" height="50" rx="14" fill="url(#paint0_linear_901_1751)"/>
<path d="M21.2223 29.58H38.0023V31.74H21.2223V29.58ZM28.2623 26.06H30.9023V30.44H28.2623V26.06ZM23.1223 16.44H36.1023V22.62H25.7823V25.72H23.1423V20.54H33.4623V18.56H23.1223V16.44ZM23.1423 24.68H36.5223V26.8H23.1423V24.68ZM41.3408 16.94H53.0608V19.06H41.3408V16.94ZM39.6208 29.2H56.3808V31.36H39.6208V29.2ZM51.6608 16.94H54.3208V19.14C54.3208 20.0067 54.3074 20.8867 54.2808 21.78C54.2674 22.6733 54.2141 23.6267 54.1208 24.64C54.0408 25.6533 53.8808 26.8 53.6408 28.08L50.9808 27.84C51.2208 26.6533 51.3808 25.56 51.4608 24.56C51.5541 23.56 51.6074 22.62 51.6208 21.74C51.6474 20.8467 51.6608 19.98 51.6608 19.14V16.94ZM70.7392 15.26H73.3992V28.56H70.7392V15.26ZM61.0592 31.32H73.8792V33.46H61.0592V31.32ZM61.0592 27.24H63.7192V32.2H61.0592V27.24ZM63.3192 16.44C64.2659 16.44 65.1192 16.64 65.8792 17.04C66.6392 17.44 67.2392 17.9933 67.6792 18.7C68.1326 19.4067 68.3592 20.22 68.3592 21.14C68.3592 22.0333 68.1326 22.84 67.6792 23.56C67.2392 24.2667 66.6392 24.8267 65.8792 25.24C65.1192 25.64 64.2659 25.84 63.3192 25.84C62.3726 25.84 61.5192 25.64 60.7592 25.24C59.9992 24.8267 59.3926 24.2667 58.9392 23.56C58.4992 22.84 58.2792 22.0333 58.2792 21.14C58.2792 20.22 58.4992 19.4067 58.9392 18.7C59.3926 17.9933 59.9992 17.44 60.7592 17.04C61.5192 16.64 62.3726 16.44 63.3192 16.44ZM63.3192 18.72C62.8659 18.72 62.4526 18.82 62.0792 19.02C61.7059 19.2067 61.4126 19.48 61.1992 19.84C60.9859 20.1867 60.8792 20.62 60.8792 21.14C60.8792 21.6333 60.9859 22.06 61.1992 22.42C61.4126 22.7667 61.7059 23.04 62.0792 23.24C62.4526 23.4267 62.8659 23.52 63.3192 23.52C63.7726 23.52 64.1859 23.4267 64.5592 23.24C64.9326 23.04 65.2259 22.7667 65.4392 22.42C65.6526 22.06 65.7592 21.6333 65.7592 21.14C65.7592 20.62 65.6526 20.1867 65.4392 19.84C65.2259 19.48 64.9326 19.2067 64.5592 19.02C64.1859 18.82 63.7726 18.72 63.3192 18.72Z" fill="white"/>
<defs>
<linearGradient id="paint0_linear_901_1751" x1="0" y1="25" x2="96" y2="25" gradientUnits="userSpaceOnUse">
<stop stop-color="#A66EE0"/>
<stop offset="1" stop-color="#735AE1"/>
</linearGradient>
</defs>
</svg>
