<svg width="103" height="40" viewBox="0 0 103 40" fill="none" xmlns="http://www.w3.org/2000/svg">
<rect x="0.25" y="0.25" width="102.5" height="39.5" rx="13.75" stroke="#8A8C90" stroke-width="0.5"/>
<path d="M16.7556 23.306H28.5016V24.818H16.7556V23.306ZM21.6836 20.842H23.5316V23.908H21.6836V20.842ZM18.0856 14.108H27.1716V18.434H19.9476V20.604H18.0996V16.978H25.3236V15.592H18.0856V14.108ZM18.0996 19.876H27.4656V21.36H18.0996V19.876ZM30.8385 14.458H39.0425V15.942H30.8385V14.458ZM29.6345 23.04H41.3665V24.552H29.6345V23.04ZM38.0625 14.458H39.9245V15.998C39.9245 16.6047 39.9152 17.2207 39.8965 17.846C39.8872 18.4713 39.8499 19.1387 39.7845 19.848C39.7285 20.5573 39.6165 21.36 39.4485 22.256L37.5865 22.088C37.7545 21.2573 37.8665 20.492 37.9225 19.792C37.9879 19.092 38.0252 18.434 38.0345 17.818C38.0532 17.1927 38.0625 16.586 38.0625 15.998V14.458ZM51.4175 13.282H53.2795V22.592H51.4175V13.282ZM44.6415 24.524H53.6155V26.022H44.6415V24.524ZM44.6415 21.668H46.5035V25.14H44.6415V21.668ZM46.2235 14.108C46.8861 14.108 47.4835 14.248 48.0155 14.528C48.5475 14.808 48.9675 15.1953 49.2755 15.69C49.5928 16.1847 49.7515 16.754 49.7515 17.398C49.7515 18.0233 49.5928 18.588 49.2755 19.092C48.9675 19.5867 48.5475 19.9787 48.0155 20.268C47.4835 20.548 46.8861 20.688 46.2235 20.688C45.5608 20.688 44.9635 20.548 44.4315 20.268C43.8995 19.9787 43.4748 19.5867 43.1575 19.092C42.8495 18.588 42.6955 18.0233 42.6955 17.398C42.6955 16.754 42.8495 16.1847 43.1575 15.69C43.4748 15.1953 43.8995 14.808 44.4315 14.528C44.9635 14.248 45.5608 14.108 46.2235 14.108ZM46.2235 15.704C45.9061 15.704 45.6168 15.774 45.3555 15.914C45.0941 16.0447 44.8888 16.236 44.7395 16.488C44.5901 16.7307 44.5155 17.034 44.5155 17.398C44.5155 17.7433 44.5901 18.042 44.7395 18.294C44.8888 18.5367 45.0941 18.728 45.3555 18.868C45.6168 18.9987 45.9061 19.064 46.2235 19.064C46.5408 19.064 46.8301 18.9987 47.0915 18.868C47.3528 18.728 47.5581 18.5367 47.7075 18.294C47.8568 18.042 47.9315 17.7433 47.9315 17.398C47.9315 17.034 47.8568 16.7307 47.7075 16.488C47.5581 16.236 47.3528 16.0447 47.0915 15.914C46.8301 15.774 46.5408 15.704 46.2235 15.704Z" fill="#2A2B2A"/>
<g clip-path="url(#clip0_791_2495)">
<path d="M77.625 12.5V15C77.625 15.1658 77.5592 15.3247 77.4419 15.4419C77.3247 15.5592 77.1658 15.625 77 15.625C76.8342 15.625 76.6753 15.5592 76.5581 15.4419C76.4408 15.3247 76.375 15.1658 76.375 15V12.5C76.375 12.3342 76.4408 12.1753 76.5581 12.0581C76.6753 11.9408 76.8342 11.875 77 11.875C77.1658 11.875 77.3247 11.9408 77.4419 12.0581C77.5592 12.1753 77.625 12.3342 77.625 12.5ZM84.5 19.375H82C81.8342 19.375 81.6753 19.4408 81.5581 19.5581C81.4408 19.6753 81.375 19.8342 81.375 20C81.375 20.1658 81.4408 20.3247 81.5581 20.4419C81.6753 20.5592 81.8342 20.625 82 20.625H84.5C84.6658 20.625 84.8247 20.5592 84.9419 20.4419C85.0592 20.3247 85.125 20.1658 85.125 20C85.125 19.8342 85.0592 19.6753 84.9419 19.5581C84.8247 19.4408 84.6658 19.375 84.5 19.375ZM80.9773 23.0938C80.8592 22.9815 80.7018 22.9198 80.5389 22.9219C80.3759 22.924 80.2202 22.9897 80.1049 23.1049C79.9897 23.2202 79.924 23.3759 79.9219 23.5389C79.9198 23.7018 79.9815 23.8592 80.0938 23.9773L81.8609 25.7453C81.9782 25.8626 82.1373 25.9285 82.3031 25.9285C82.469 25.9285 82.628 25.8626 82.7453 25.7453C82.8626 25.628 82.9285 25.469 82.9285 25.3031C82.9285 25.1373 82.8626 24.9782 82.7453 24.8609L80.9773 23.0938ZM77 24.375C76.8342 24.375 76.6753 24.4408 76.5581 24.5581C76.4408 24.6753 76.375 24.8342 76.375 25V27.5C76.375 27.6658 76.4408 27.8247 76.5581 27.9419C76.6753 28.0592 76.8342 28.125 77 28.125C77.1658 28.125 77.3247 28.0592 77.4419 27.9419C77.5592 27.8247 77.625 27.6658 77.625 27.5V25C77.625 24.8342 77.5592 24.6753 77.4419 24.5581C77.3247 24.4408 77.1658 24.375 77 24.375ZM73.0227 23.0938L71.2547 24.8609C71.1374 24.9782 71.0715 25.1373 71.0715 25.3031C71.0715 25.469 71.1374 25.628 71.2547 25.7453C71.372 25.8626 71.531 25.9285 71.6969 25.9285C71.8627 25.9285 72.0218 25.8626 72.1391 25.7453L73.9062 23.9773C74.0185 23.8592 74.0802 23.7018 74.0781 23.5389C74.076 23.3759 74.0103 23.2202 73.8951 23.1049C73.7798 22.9897 73.6241 22.924 73.4611 22.9219C73.2982 22.9198 73.1408 22.9815 73.0227 23.0938ZM72.625 20C72.625 19.8342 72.5592 19.6753 72.4419 19.5581C72.3247 19.4408 72.1658 19.375 72 19.375H69.5C69.3342 19.375 69.1753 19.4408 69.0581 19.5581C68.9408 19.6753 68.875 19.8342 68.875 20C68.875 20.1658 68.9408 20.3247 69.0581 20.4419C69.1753 20.5592 69.3342 20.625 69.5 20.625H72C72.1658 20.625 72.3247 20.5592 72.4419 20.4419C72.5592 20.3247 72.625 20.1658 72.625 20ZM72.1391 14.2547C72.0218 14.1374 71.8627 14.0715 71.6969 14.0715C71.531 14.0715 71.372 14.1374 71.2547 14.2547C71.1374 14.372 71.0715 14.531 71.0715 14.6969C71.0715 14.8627 71.1374 15.0218 71.2547 15.1391L73.0227 16.9062C73.1408 17.0185 73.2982 17.0802 73.4611 17.0781C73.6241 17.076 73.7798 17.0103 73.8951 16.8951C74.0103 16.7798 74.076 16.6241 74.0781 16.4611C74.0802 16.2982 74.0185 16.1408 73.9062 16.0227L72.1391 14.2547Z" fill="#2A2B2A"/>
</g>
<defs>
<clipPath id="clip0_791_2495">
<rect width="20" height="20" fill="white" transform="translate(67 10)"/>
</clipPath>
</defs>
</svg>
