<svg width="20" height="20" viewBox="0 0 20 20" fill="none" xmlns="http://www.w3.org/2000/svg">
<path d="M12.1527 4.56401C12.1527 4.15578 12.0264 3.75673 11.7898 3.41731C11.5531 3.07788 11.2168 2.81333 10.8233 2.65711C10.4298 2.50089 9.99675 2.46002 9.579 2.53966C9.16124 2.6193 8.77751 2.81588 8.47633 3.10453C8.17515 3.39319 7.97004 3.76096 7.88695 4.16134C7.80385 4.56172 7.8465 4.97672 8.0095 5.35387C8.1725 5.73101 8.44853 6.05337 8.80268 6.28016C9.15683 6.50696 9.5732 6.62801 9.99914 6.62801C10.5703 6.62801 11.1181 6.41055 11.5219 6.02348C11.9258 5.6364 12.1527 5.11141 12.1527 4.56401ZM9.99914 5.59601C9.78617 5.59601 9.57798 5.53548 9.40091 5.42208C9.22383 5.30869 9.08582 5.14751 9.00432 4.95894C8.92282 4.77036 8.90149 4.56286 8.94304 4.36267C8.98459 4.16248 9.08714 3.9786 9.23773 3.83427C9.38833 3.68994 9.58019 3.59165 9.78907 3.55183C9.99794 3.51201 10.2144 3.53245 10.4112 3.61056C10.608 3.68867 10.7761 3.82094 10.8944 3.99066C11.0128 4.16037 11.0759 4.3599 11.0759 4.56401C11.0759 4.83771 10.9625 5.1002 10.7605 5.29374C10.5586 5.48728 10.2847 5.59601 9.99914 5.59601ZM16.9646 7.64131C16.9033 7.35232 16.7386 7.09292 16.499 6.90792C16.2594 6.72291 15.9599 6.62391 15.6523 6.62801H4.34602C4.03919 6.628 3.74157 6.72847 3.50247 6.91276C3.26337 7.09704 3.09714 7.3541 3.03133 7.64132C2.96552 7.92854 3.00407 8.2287 3.14061 8.49205C3.27714 8.7554 3.50346 8.96613 3.78206 9.08934H3.7908L7.20623 10.5309L5.79295 15.6729C5.64507 15.9851 5.63265 16.3408 5.75842 16.6617C5.88419 16.9827 6.13784 17.2427 6.46358 17.3844C6.78932 17.5261 7.16047 17.538 7.49537 17.4175C7.83026 17.2969 8.10148 17.0538 8.24936 16.7416L9.99914 13.8475L11.7489 16.7416C11.9044 17.0405 12.1748 17.27 12.5032 17.3817C12.8316 17.4934 13.1924 17.4787 13.5097 17.3407C13.827 17.2027 14.0761 16.9521 14.2046 16.6416C14.3331 16.3312 14.3309 15.9851 14.1986 15.6761L12.7853 10.5341L16.2007 9.09256H16.2095C16.4926 8.97348 16.7231 8.76306 16.8611 8.49791C16.999 8.23276 17.0357 7.92966 16.9646 7.64131ZM15.7667 8.15086L11.9353 9.76723C11.818 9.81677 11.723 9.90478 11.6674 10.0154C11.6118 10.1261 11.5991 10.2522 11.6318 10.371L13.1709 15.9805C13.1788 16.0106 13.1898 16.0397 13.2039 16.0676C13.2265 16.1139 13.2342 16.1656 13.2261 16.2161C13.218 16.2666 13.1945 16.3137 13.1584 16.3513C13.1224 16.389 13.0755 16.4155 13.0237 16.4276C12.9719 16.4397 12.9175 16.4367 12.8674 16.4191C12.8005 16.3956 12.746 16.3476 12.716 16.2856C12.7092 16.2717 12.7015 16.2581 12.6931 16.245L10.4648 12.562C10.4175 12.4838 10.3496 12.4189 10.2679 12.3738C10.1861 12.3287 10.0935 12.3049 9.99914 12.3049C9.90481 12.3049 9.81215 12.3287 9.73042 12.3738C9.64868 12.4189 9.58075 12.4838 9.53343 12.562L7.30718 16.2418C7.29875 16.2549 7.29111 16.2684 7.2843 16.2824C7.25426 16.3444 7.1998 16.3924 7.13287 16.4159C7.08281 16.4335 7.02843 16.4364 6.97662 16.4244C6.92481 16.4123 6.87791 16.3857 6.84187 16.3481C6.80582 16.3104 6.78226 16.2634 6.77416 16.2129C6.76606 16.1623 6.77379 16.1107 6.79638 16.0644C6.81046 16.0365 6.82151 16.0073 6.82935 15.9773L8.36646 10.369C8.39913 10.2502 8.38652 10.1242 8.33088 10.0135C8.27524 9.90284 8.18024 9.81483 8.06294 9.7653L4.23161 8.15086C4.17662 8.12571 4.13215 8.08342 4.10549 8.0309C4.07882 7.97839 4.07154 7.91876 4.08482 7.86176C4.09811 7.80476 4.13118 7.75377 4.17862 7.71713C4.22607 7.68048 4.28509 7.66034 4.34602 7.66001H15.6523C15.7134 7.65991 15.7727 7.67973 15.8205 7.71622C15.8683 7.75272 15.9017 7.80371 15.9152 7.86082C15.9288 7.91793 15.9217 7.97776 15.895 8.03047C15.8684 8.08318 15.8238 8.12564 15.7687 8.15086H15.7667Z"/>
</svg>
