<svg width="20" height="20" viewBox="0 0 20 20" fill="none" xmlns="http://www.w3.org/2000/svg">
<path fill-rule="evenodd" clip-rule="evenodd" d="M10 3.65385C6.49512 3.65385 3.65385 6.49512 3.65385 10C3.65385 13.5049 6.49512 16.3462 10 16.3462C13.5049 16.3462 16.3462 13.5049 16.3462 10C16.3462 6.49512 13.5049 3.65385 10 3.65385ZM2.5 10C2.5 5.85786 5.85786 2.5 10 2.5C14.1421 2.5 17.5 5.85786 17.5 10C17.5 14.1421 14.1421 17.5 10 17.5C5.85786 17.5 2.5 14.1421 2.5 10Z"/>
<path fill-rule="evenodd" clip-rule="evenodd" d="M10 7.11538C8.7255 7.11538 7.69231 8.14857 7.69231 9.42308C7.69231 10.6976 8.7255 11.7308 10 11.7308C11.2745 11.7308 12.3077 10.6976 12.3077 9.42308C12.3077 8.14857 11.2745 7.11538 10 7.11538ZM6.53846 9.42308C6.53846 7.51132 8.08825 5.96154 10 5.96154C11.9118 5.96154 13.4615 7.51132 13.4615 9.42308C13.4615 11.3348 11.9118 12.8846 10 12.8846C8.08825 12.8846 6.53846 11.3348 6.53846 9.42308Z"/>
<path fill-rule="evenodd" clip-rule="evenodd" d="M10 12.8846C9.14768 12.8846 8.312 13.1202 7.5856 13.5661C6.8592 14.0119 6.27045 14.6502 5.88462 15.4102C5.74038 15.6943 5.39313 15.8077 5.10902 15.6635C4.82492 15.5192 4.71153 15.172 4.85577 14.8879C5.33807 13.9379 6.07401 13.14 6.982 12.5827C7.89 12.0253 8.9346 11.7308 10 11.7308C11.0654 11.7308 12.11 12.0253 13.018 12.5827C13.926 13.14 14.6619 13.9379 15.1442 14.8879C15.2885 15.172 15.1751 15.5192 14.891 15.6635C14.6069 15.8077 14.2596 15.6943 14.1154 15.4102C13.7295 14.6502 13.1408 14.0119 12.4144 13.5661C11.688 13.1202 10.8523 12.8846 10 12.8846Z"/>
</svg>
