<svg width="114" height="50" viewBox="0 0 114 50" fill="none" xmlns="http://www.w3.org/2000/svg">
<rect width="114" height="50" rx="14" fill="url(#paint0_linear_901_1754)"/>
<path d="M25.7031 26.52H28.3631V29.52H25.7031V26.52ZM33.8031 15.26H36.4631V33.78H33.8031V15.26ZM21.4231 30.7L21.1031 28.54C22.2231 28.54 23.4431 28.5333 24.7631 28.52C26.0831 28.5067 27.4365 28.46 28.8231 28.38C30.2231 28.3 31.5698 28.1733 32.8631 28L33.0431 29.92C31.6965 30.16 30.3365 30.34 28.9631 30.46C27.6031 30.5667 26.2831 30.6333 25.0031 30.66C23.7231 30.6867 22.5298 30.7 21.4231 30.7ZM21.4631 17.3H32.6231V19.38H21.4631V17.3ZM27.0431 20.1C27.9498 20.1 28.7498 20.2467 29.4431 20.54C30.1365 20.8333 30.6765 21.24 31.0631 21.76C31.4631 22.28 31.6631 22.8867 31.6631 23.58C31.6631 24.26 31.4631 24.8667 31.0631 25.4C30.6765 25.92 30.1365 26.3267 29.4431 26.62C28.7498 26.9133 27.9498 27.06 27.0431 27.06C26.1365 27.06 25.3365 26.9133 24.6431 26.62C23.9498 26.3267 23.4031 25.92 23.0031 25.4C22.6165 24.8667 22.4231 24.26 22.4231 23.58C22.4231 22.8867 22.6165 22.28 23.0031 21.76C23.4031 21.24 23.9498 20.8333 24.6431 20.54C25.3365 20.2467 26.1365 20.1 27.0431 20.1ZM27.0431 22.1C26.4298 22.1 25.9298 22.2333 25.5431 22.5C25.1565 22.7533 24.9631 23.1133 24.9631 23.58C24.9631 24.06 25.1565 24.4267 25.5431 24.68C25.9298 24.9333 26.4298 25.06 27.0431 25.06C27.6565 25.06 28.1565 24.9333 28.5431 24.68C28.9298 24.4267 29.1231 24.06 29.1231 23.58C29.1231 23.1133 28.9298 22.7533 28.5431 22.5C28.1565 22.2333 27.6565 22.1 27.0431 22.1ZM25.7031 15.32H28.3831V18.5H25.7031V15.32ZM44.2416 24.76H46.9016V28.8H44.2416V24.76ZM52.3416 15.24H55.0016V29.28H52.3416V15.24ZM41.6616 31.32H55.4216V33.46H41.6616V31.32ZM41.6616 27.94H44.3216V31.9H41.6616V27.94ZM39.6816 25.56L39.3416 23.44C40.4749 23.4267 41.7082 23.4133 43.0416 23.4C44.3749 23.3733 45.7349 23.32 47.1216 23.24C48.5082 23.16 49.8416 23.04 51.1216 22.88L51.3016 24.78C49.9816 25.0067 48.6349 25.18 47.2616 25.3C45.9016 25.4067 44.5749 25.4733 43.2816 25.5C41.9882 25.5267 40.7882 25.5467 39.6816 25.56ZM48.8616 26H52.9416V27.82H48.8616V26ZM45.3016 15.88C46.2082 15.88 47.0082 16.02 47.7016 16.3C48.3949 16.58 48.9349 16.9667 49.3216 17.46C49.7216 17.9533 49.9216 18.5333 49.9216 19.2C49.9216 19.8533 49.7216 20.4333 49.3216 20.94C48.9349 21.4333 48.3949 21.8133 47.7016 22.08C47.0082 22.3467 46.2082 22.48 45.3016 22.48C44.3949 22.48 43.5882 22.3467 42.8816 22.08C42.1882 21.8133 41.6482 21.4333 41.2616 20.94C40.8749 20.4333 40.6816 19.8533 40.6816 19.2C40.6816 18.5333 40.8749 17.9533 41.2616 17.46C41.6482 16.9667 42.1882 16.58 42.8816 16.3C43.5882 16.02 44.3949 15.88 45.3016 15.88ZM45.3016 17.82C44.6882 17.82 44.1816 17.9333 43.7816 18.16C43.3949 18.3867 43.2016 18.7333 43.2016 19.2C43.2016 19.64 43.3949 19.98 43.7816 20.22C44.1816 20.4467 44.6882 20.56 45.3016 20.56C45.9282 20.56 46.4282 20.4467 46.8016 20.22C47.1882 19.98 47.3816 19.64 47.3816 19.2C47.3816 18.8933 47.2949 18.64 47.1216 18.44C46.9482 18.24 46.7082 18.0867 46.4016 17.98C46.0949 17.8733 45.7282 17.82 45.3016 17.82ZM69.64 15.22H72.32V33.74H69.64V15.22ZM71.64 22.32H74.9V24.5H71.64V22.32ZM64.78 17.14H67.4C67.4 18.9933 67.1333 20.7467 66.6 22.4C66.08 24.0533 65.2133 25.5733 64 26.96C62.8 28.3333 61.1733 29.5333 59.12 30.56L57.62 28.54C59.2467 27.7 60.5867 26.7533 61.64 25.7C62.7067 24.6467 63.4933 23.4533 64 22.12C64.52 20.7733 64.78 19.2733 64.78 17.62V17.14ZM58.64 17.14H66.16V19.28H58.64V17.14ZM88.9384 15.26H91.5984V25.2H88.9384V15.26ZM79.2984 26.02H81.9184V27.74H88.9584V26.02H91.5984V33.58H79.2984V26.02ZM81.9184 29.78V31.46H88.9584V29.78H81.9184ZM81.5184 16.02C82.4784 16.02 83.3384 16.2067 84.0984 16.58C84.8584 16.9533 85.4584 17.4667 85.8984 18.12C86.3384 18.7733 86.5584 19.5267 86.5584 20.38C86.5584 21.2333 86.3384 21.9933 85.8984 22.66C85.4584 23.3133 84.8584 23.8267 84.0984 24.2C83.3384 24.5733 82.4784 24.76 81.5184 24.76C80.5584 24.76 79.6984 24.5733 78.9384 24.2C78.1784 23.8267 77.5784 23.3133 77.1384 22.66C76.6984 21.9933 76.4784 21.2333 76.4784 20.38C76.4784 19.5267 76.6984 18.7733 77.1384 18.12C77.5784 17.4667 78.1784 16.9533 78.9384 16.58C79.6984 16.2067 80.5584 16.02 81.5184 16.02ZM81.5184 18.2C81.0518 18.2 80.6318 18.2867 80.2584 18.46C79.8851 18.6333 79.5918 18.8867 79.3784 19.22C79.1784 19.54 79.0784 19.9267 79.0784 20.38C79.0784 20.8467 79.1784 21.2467 79.3784 21.58C79.5918 21.9 79.8851 22.1467 80.2584 22.32C80.6318 22.48 81.0518 22.56 81.5184 22.56C81.9851 22.56 82.3984 22.48 82.7584 22.32C83.1318 22.1467 83.4251 21.9 83.6384 21.58C83.8518 21.2467 83.9584 20.8467 83.9584 20.38C83.9584 19.9267 83.8518 19.54 83.6384 19.22C83.4251 18.8867 83.1318 18.6333 82.7584 18.46C82.3984 18.2867 81.9851 18.2 81.5184 18.2Z" fill="white"/>
<defs>
<linearGradient id="paint0_linear_901_1754" x1="0" y1="25" x2="114" y2="25" gradientUnits="userSpaceOnUse">
<stop stop-color="#A66EE0"/>
<stop offset="1" stop-color="#735AE1"/>
</linearGradient>
</defs>
</svg>
