<svg width="116" height="40" viewBox="0 0 116 40" fill="none" xmlns="http://www.w3.org/2000/svg">
<rect width="116" height="40" rx="14" fill="url(#paint0_linear_901_1738)"/>
<path d="M19.9662 14.276H21.4922V16.152C21.4922 16.992 21.4175 17.7993 21.2682 18.574C21.1189 19.3393 20.8902 20.058 20.5822 20.73C20.2835 21.3927 19.8962 21.9807 19.4202 22.494C18.9535 22.998 18.3982 23.3993 17.7542 23.698L16.6482 22.158C17.2175 21.906 17.7075 21.5747 18.1182 21.164C18.5382 20.744 18.8835 20.268 19.1542 19.736C19.4249 19.1947 19.6255 18.6207 19.7562 18.014C19.8962 17.4073 19.9662 16.7867 19.9662 16.152V14.276ZM20.3302 14.276H21.8422V16.152C21.8422 16.7587 21.9075 17.3513 22.0382 17.93C22.1689 18.5087 22.3649 19.0547 22.6262 19.568C22.8969 20.0813 23.2329 20.5387 23.6342 20.94C24.0449 21.332 24.5255 21.6447 25.0762 21.878L23.9982 23.39C23.3729 23.1007 22.8269 22.7133 22.3602 22.228C21.9029 21.7427 21.5249 21.1827 21.2262 20.548C20.9275 19.904 20.7035 19.2133 20.5542 18.476C20.4049 17.7293 20.3302 16.9547 20.3302 16.152V14.276ZM25.7062 13.254H27.5682V26.26H25.7062V13.254ZM32.5791 14.598H34.1051V15.41C34.1051 16.2313 33.9698 17.006 33.6991 17.734C33.4378 18.462 33.0364 19.1013 32.4951 19.652C31.9631 20.1933 31.2864 20.5993 30.4651 20.87L29.4991 19.428C30.2178 19.1853 30.8011 18.854 31.2491 18.434C31.7064 18.014 32.0424 17.5427 32.2571 17.02C32.4718 16.488 32.5791 15.9513 32.5791 15.41V14.598ZM32.9431 14.598H34.4551V15.41C34.4551 15.914 34.5578 16.418 34.7631 16.922C34.9684 17.4167 35.2904 17.8647 35.7291 18.266C36.1771 18.658 36.7464 18.966 37.4371 19.19L36.4991 20.646C35.6871 20.3847 35.0198 19.988 34.4971 19.456C33.9744 18.924 33.5824 18.3127 33.3211 17.622C33.0691 16.922 32.9431 16.1847 32.9431 15.41V14.598ZM29.9891 14.038H37.0031V15.522H29.9891V14.038ZM38.0251 13.282H39.8871V21.08H38.0251V13.282ZM39.3831 16.404H41.6091V17.944H39.3831V16.404ZM31.2351 21.654H39.8871V26.246H38.0251V23.138H31.2351V21.654ZM50.876 13.282H52.738V26.246H50.876V13.282ZM52.318 18.336H54.6V19.876H52.318V18.336ZM42.504 15.186H50.064V16.67H42.504V15.186ZM46.312 17.412C46.9373 17.412 47.4973 17.5473 47.992 17.818C48.4867 18.0793 48.874 18.4387 49.154 18.896C49.4433 19.3533 49.588 19.8853 49.588 20.492C49.588 21.0987 49.4433 21.6353 49.154 22.102C48.874 22.5593 48.4867 22.9233 47.992 23.194C47.5067 23.4553 46.9467 23.586 46.312 23.586C45.6867 23.586 45.122 23.4553 44.618 23.194C44.1233 22.9233 43.7313 22.5593 43.442 22.102C43.162 21.6353 43.022 21.0987 43.022 20.492C43.022 19.8853 43.162 19.3533 43.442 18.896C43.7313 18.4387 44.1233 18.0793 44.618 17.818C45.122 17.5473 45.6867 17.412 46.312 17.412ZM46.312 18.924C46.0133 18.924 45.752 18.9847 45.528 19.106C45.304 19.2273 45.1267 19.4047 44.996 19.638C44.8653 19.8713 44.8 20.156 44.8 20.492C44.8 20.8187 44.8653 21.1033 44.996 21.346C45.1267 21.5793 45.304 21.7613 45.528 21.892C45.752 22.0133 46.0133 22.074 46.312 22.074C46.6013 22.074 46.858 22.0133 47.082 21.892C47.306 21.7613 47.4833 21.5793 47.614 21.346C47.7447 21.1033 47.81 20.8187 47.81 20.492C47.81 20.156 47.7447 19.8713 47.614 19.638C47.4833 19.4047 47.306 19.2273 47.082 19.106C46.858 18.9847 46.6013 18.924 46.312 18.924ZM45.36 13.492H47.236V15.76H45.36V13.492ZM64.3849 13.268H66.2469V26.232H64.3849V13.268ZM60.5629 14.612H62.3969C62.3969 15.6013 62.2989 16.5487 62.1029 17.454C61.9162 18.35 61.5989 19.1947 61.1509 19.988C60.7122 20.7813 60.1056 21.5187 59.3309 22.2C58.5656 22.872 57.6089 23.488 56.4609 24.048L55.4809 22.578C56.7316 21.9713 57.7256 21.304 58.4629 20.576C59.2096 19.8387 59.7462 19.008 60.0729 18.084C60.3996 17.1507 60.5629 16.1053 60.5629 14.948V14.612ZM56.1809 14.612H61.4309V16.096H56.1809V14.612Z" fill="white"/>
<g clip-path="url(#clip0_901_1738)">
<path fill-rule="evenodd" clip-rule="evenodd" d="M87.205 25.7885C86.9317 25.5064 86.9317 25.0491 87.205 24.7671L92.3101 19.5L87.205 14.2329C86.9317 13.9509 86.9317 13.4936 87.205 13.2115C87.4784 12.9295 87.9216 12.9295 88.195 13.2115L93.795 18.9893C94.0683 19.2714 94.0683 19.7286 93.795 20.0107L88.195 25.7885C87.9216 26.0705 87.4784 26.0705 87.205 25.7885Z" fill="white"/>
</g>
<defs>
<linearGradient id="paint0_linear_901_1738" x1="0" y1="20" x2="116" y2="20" gradientUnits="userSpaceOnUse">
<stop stop-color="#A66EE0"/>
<stop offset="1" stop-color="#735AE1"/>
</linearGradient>
<clipPath id="clip0_901_1738">
<rect width="20" height="20" fill="white" transform="translate(80 10)"/>
</clipPath>
</defs>
</svg>
