<svg width="35" height="26" viewBox="0 0 35 26" fill="none" xmlns="http://www.w3.org/2000/svg">
<path d="M34.3831 0.133261C34.1971 0.0372401 33.9875 -0.00837882 33.7766 0.00126558C33.5658 0.01091 33.3616 0.0754563 33.1858 0.188027L25.6667 8.66759V2.24918C25.6667 1.6533 25.4208 1.08182 24.9832 0.660466C24.5457 0.239112 23.9522 0.0023974 23.3333 0.0023974L2.33348 0.00126552C1.71464 0.00126552 1.121 0.238966 0.683418 0.66032C0.245833 1.08167 1.73847e-07 1.65315 1.73847e-07 2.24904L0 23.753C0 24.3489 0.245833 24.9204 0.683417 25.3417C1.121 25.7631 1.71449 25.9998 2.33333 25.9998L23.3333 25.9999C23.9522 25.9999 24.5457 25.7632 24.9832 25.3419C25.4208 24.9205 25.6667 24.349 25.6667 23.7532V17.3338L33.1858 25.8188C33.3784 25.9392 33.6037 26.0022 33.8333 25.9999C34.1428 25.9999 34.4395 25.8816 34.6583 25.6709C34.8771 25.4602 35 25.1745 35 24.8765V1.11623C34.9985 0.914102 34.9404 0.716101 34.8319 0.543101C34.7233 0.370101 34.5683 0.228512 34.3831 0.133261ZM23.3333 23.7532L2.33333 23.753V2.24904L23.3333 2.24918V23.7532ZM32.6667 21.6668L25.6667 13.7229V12.2785L32.6667 4.3345V21.6668Z" fill="white"/>
</svg>
