<svg width="60" height="61" viewBox="0 0 60 61" fill="none" xmlns="http://www.w3.org/2000/svg">
<rect y="0.5" width="60" height="60" rx="14" fill="url(#paint0_linear_707_1767)"/>
<path d="M47.3831 17.6333C47.1971 17.5372 46.9875 17.4916 46.7766 17.5013C46.5658 17.5109 46.3616 17.5755 46.1858 17.688L38.6667 26.1676V19.7492C38.6667 19.1533 38.4208 18.5818 37.9832 18.1605C37.5457 17.7391 36.9522 17.5024 36.3333 17.5024L15.3335 17.5013C14.7146 17.5013 14.121 17.739 13.6834 18.1603C13.2458 18.5817 13 19.1532 13 19.749L13 41.253C13 41.8489 13.2458 42.4204 13.6834 42.8417C14.121 43.2631 14.7145 43.4998 15.3333 43.4998L36.3333 43.4999C36.9522 43.4999 37.5457 43.2632 37.9832 42.8419C38.4208 42.4205 38.6667 41.849 38.6667 41.2532V34.8338L46.1858 43.3188C46.3784 43.4392 46.6037 43.5022 46.8333 43.4999C47.1428 43.4999 47.4395 43.3816 47.6583 43.1709C47.8771 42.9602 48 42.6745 48 42.3765V18.6162C47.9985 18.4141 47.9404 18.2161 47.8319 18.0431C47.7233 17.8701 47.5683 17.7285 47.3831 17.6333ZM36.3333 41.2532L15.3333 41.253V19.749L36.3333 19.7492V41.2532ZM45.6667 39.1668L38.6667 31.2229V29.7785L45.6667 21.8345V39.1668Z" fill="white"/>
<defs>
<linearGradient id="paint0_linear_707_1767" x1="0" y1="30.5" x2="60" y2="30.5" gradientUnits="userSpaceOnUse">
<stop stop-color="#A66EE0"/>
<stop offset="1" stop-color="#735AE1"/>
</linearGradient>
</defs>
</svg>
