<svg width="60" height="61" viewBox="0 0 60 61" fill="none" xmlns="http://www.w3.org/2000/svg">
<rect y="0.5" width="60" height="60" rx="14" fill="#FF0000"/>
<path fill-rule="evenodd" clip-rule="evenodd" d="M21.9205 16.307C21.8701 16.3039 21.7834 16.3064 21.6482 16.3293C20.0651 16.597 18.6184 17.4012 17.5538 18.6114C16.6875 19.5961 16.1198 20.7977 15.9035 22.0761C15.7769 22.8245 15.79 23.6392 15.8433 24.5534C16.1626 30.0306 18.4784 35.2191 22.3769 39.12C26.429 43.1744 31.8712 45.518 37.5826 45.6859C38.2518 45.7056 38.8557 45.6913 39.4108 45.5973C40.6885 45.3809 41.8894 44.8128 42.8735 43.946C44.15 42.8217 44.9746 41.2715 45.1938 39.5842L45.1915 39.5833L36.9883 36.0579L32.6115 38.9833L32.6079 38.9858C32.2051 39.257 31.7387 39.4189 31.2546 39.4557C30.7689 39.4926 30.2821 39.4023 29.8419 39.1938L29.8341 39.1901C26.5649 37.6164 23.9247 34.9815 22.3435 31.7144L22.3407 31.7086C22.1336 31.2756 22.041 30.7966 22.0717 30.3176C22.1024 29.8385 22.2554 29.3754 22.516 28.9724L22.5215 28.9639L25.4396 24.5231L25.4369 24.517L21.9205 16.307ZM21.1809 13.5622C21.8015 13.4572 22.8421 13.397 23.7211 14.1389C24.0565 14.422 24.3222 14.7819 24.4938 15.191L28.0121 23.4052L28.0136 23.4087C28.1958 23.83 28.2719 24.2895 28.2353 24.747C28.1987 25.2058 28.0498 25.6485 27.8018 26.0362L27.7925 26.0506L24.8706 30.4971C26.1747 33.1883 28.3496 35.3591 31.0422 36.6574L31.0479 36.6536L35.4267 33.7269C35.8153 33.4643 36.2639 33.3041 36.7308 33.2611C37.1978 33.218 37.668 33.2936 38.098 33.4807L38.1033 33.483L46.2925 37.0021C46.8529 37.2377 47.3212 37.6503 47.6256 38.1771C47.9315 38.7064 48.0551 39.3216 47.9773 39.928C47.674 42.2971 46.5183 44.4744 44.7266 46.0525C43.3488 47.266 41.6675 48.0613 39.8789 48.3642C39.0564 48.5035 38.2398 48.5128 37.5002 48.4911C31.0748 48.3021 24.9523 45.6656 20.3937 41.1044C16.0078 36.7158 13.4026 30.8787 13.0434 24.7168C12.9881 23.7687 12.9556 22.6873 13.1382 21.6078C13.441 19.8181 14.2357 18.1358 15.4485 16.7571C16.9391 15.0629 18.9644 13.937 21.1809 13.5622Z" fill="white"/>
<path fill-rule="evenodd" clip-rule="evenodd" d="M36.3084 25.2478C35.7614 24.7005 35.6862 23.8884 36.1444 23.43L45.3994 14.1681C45.8576 13.7097 46.6692 13.7849 47.2161 14.3322C47.7631 14.8795 47.8383 15.6916 47.3802 16.15L38.1251 25.4119C37.667 25.8703 36.8554 25.7951 36.3084 25.2478Z" fill="white"/>
<path fill-rule="evenodd" clip-rule="evenodd" d="M36.3086 14.3329C36.8583 13.7828 37.6735 13.7066 38.1293 14.1627L47.3861 23.4253C47.8419 23.8814 47.7657 24.697 47.216 25.2471C46.6662 25.7972 45.851 25.8734 45.3952 25.4173L36.1385 16.1547C35.6827 15.6986 35.7588 14.883 36.3086 14.3329Z" fill="white"/>
</svg>
