<svg width="60" height="61" viewBox="0 0 60 61" fill="none" xmlns="http://www.w3.org/2000/svg">
<rect y="0.5" width="60" height="60" rx="14" fill="url(#paint0_linear_707_1769)"/>
<path d="M40.7982 33.5122C41.1035 33.5418 41.3905 33.6742 41.6094 33.8886C41.8593 34.1336 42 34.4221 42 34.8125C41.9992 37.2212 36.59 41.845 31.3333 42.5554V49.1933C31.3333 49.5399 31.1928 49.8721 30.9427 50.1172C30.6927 50.3622 30.3536 50.5 30 50.5C29.6464 50.5 29.3073 50.3622 29.0573 50.1172C28.8072 49.8721 28.6667 49.5399 28.6667 49.1933V42.5567C23.4099 41.8462 18.0008 37.2212 18 34.8125C18 34.422 18.109 34.1647 18.3906 33.8886C18.6724 33.6125 18.9797 33.5058 19.3333 33.5058L19.4648 33.5122C19.7702 33.5418 20.0572 33.6742 20.276 33.8886C20.5258 34.1336 20.4946 34.4604 20.6667 34.8125C22.4804 38.5224 27.2823 40.0984 30 40.0391C34.1964 39.9473 38.6125 36.286 39.3333 34.8125C39.5055 34.4604 39.4742 34.1336 39.724 33.8886C39.974 33.6436 40.313 33.5058 40.6667 33.5058L40.7982 33.5122Z" fill="white"/>
<path fill-rule="evenodd" clip-rule="evenodd" d="M30 10.5C32.1214 10.5 34.156 11.327 35.6562 12.7969C37.1563 14.2669 37.9998 16.261 38 18.3399V28.5567C37.9999 30.6358 37.1564 32.6296 35.6562 34.0997C34.156 35.5698 32.1216 36.3966 30 36.3966C27.8784 36.3965 25.8426 35.5699 24.3424 34.0997C22.8427 32.6297 22.0001 30.6354 22 28.5567V18.3399C22.0002 16.2612 22.8426 14.2669 24.3424 12.7969C25.8426 11.3267 27.8784 10.5001 30 10.5ZM30 13.1133C28.5858 13.1134 27.2292 13.6646 26.2292 14.6446C25.2292 15.6245 24.6669 16.9541 24.6667 18.3399V28.5567C24.6668 29.9425 25.2293 31.272 26.2292 32.252C27.2292 33.232 28.5858 33.7832 30 33.7833C31.4143 33.7833 32.7707 33.232 33.7708 32.252C34.7709 31.272 35.3332 29.9427 35.3333 28.5567V18.3399C35.3331 16.954 34.7708 15.6245 33.7708 14.6446C32.7707 13.6648 31.4142 13.1133 30 13.1133Z" fill="white"/>
<defs>
<linearGradient id="paint0_linear_707_1769" x1="0" y1="30.5" x2="60" y2="30.5" gradientUnits="userSpaceOnUse">
<stop stop-color="#A66EE0"/>
<stop offset="1" stop-color="#735AE1"/>
</linearGradient>
</defs>
</svg>
