<svg width="137" height="52" viewBox="0 0 137 52" fill="none" xmlns="http://www.w3.org/2000/svg">
<rect width="137" height="52" rx="14" fill="url(#paint0_linear_670_1760)"/>
<g clip-path="url(#clip0_670_1760)">
<path fill-rule="evenodd" clip-rule="evenodd" d="M26.3607 15.0552C26.3248 15.0529 26.2629 15.0548 26.1666 15.0711C25.0376 15.2618 24.006 15.835 23.2468 16.6974C22.6291 17.3992 22.2242 18.2556 22.07 19.1667C21.9797 19.7001 21.9891 20.2806 22.0271 20.9322C22.2548 24.8356 23.9061 28.5334 26.6862 31.3135C29.5757 34.203 33.4565 35.8731 37.5293 35.9928C38.0065 36.0069 38.4372 35.9967 38.833 35.9297C39.7441 35.7754 40.6005 35.3706 41.3022 34.7529C42.2125 33.9515 42.8005 32.8468 42.9568 31.6443L42.9552 31.6437L42.9553 31.6436L37.1055 29.1312L37.1054 29.1313L37.1054 29.1313L33.9844 31.2161C33.9836 31.2166 33.9827 31.2172 33.9818 31.2178C33.6946 31.4111 33.3621 31.5265 33.0168 31.5527C32.6705 31.579 32.3233 31.5147 32.0094 31.3661L32.0039 31.3634C29.6726 30.2419 27.7899 28.364 26.6624 26.0356L26.6604 26.0315L26.6604 26.0314C26.5127 25.7229 26.4466 25.3815 26.4685 25.0401C26.4904 24.6987 26.5995 24.3687 26.7854 24.0814L26.7893 24.0754L26.7893 24.0754L28.8701 20.9106L28.8682 20.9062L28.8683 20.9062L26.3607 15.0552ZM42.9581 31.6349L42.958 31.6352ZM25.8333 13.099C26.2758 13.0242 27.0179 12.9813 27.6447 13.51C27.8839 13.7118 28.0734 13.9683 28.1958 14.2598L30.7046 20.1139C30.705 20.1147 30.7054 20.1156 30.7057 20.1164C30.8356 20.4166 30.8899 20.7441 30.8638 21.0701C30.8377 21.3971 30.7315 21.7126 30.5546 21.9889L30.548 21.9992L30.548 21.9991L28.4644 25.1681C29.3943 27.086 30.9453 28.6332 32.8654 29.5585L32.8694 29.5557L32.8694 29.5557L35.992 27.4699C36.2691 27.2828 36.5889 27.1686 36.9219 27.1379C37.2549 27.1072 37.5902 27.1611 37.8969 27.2944C37.8981 27.295 37.8994 27.2955 37.9006 27.2961L43.7403 29.8041C44.14 29.972 44.4739 30.2661 44.691 30.6415C44.9091 31.0187 44.9972 31.4571 44.9418 31.8893C44.7255 33.5777 43.9014 35.1294 42.6237 36.2541C41.6412 37.1189 40.4423 37.6857 39.1668 37.9016C38.5803 38.0009 37.998 38.0075 37.4705 37.992C32.8886 37.8573 28.5227 35.9784 25.272 32.7277C22.1444 29.6001 20.2866 25.4401 20.0305 21.0486C19.991 20.3729 19.9678 19.6022 20.0981 18.8329C20.314 17.5574 20.8807 16.3585 21.7456 15.376C22.8084 14.1685 24.2527 13.3661 25.8333 13.099Z" fill="white"/>
</g>
<path d="M67.4065 20.656H71.7745V22.368H67.4065V20.656ZM67.4065 24.256H71.7745V25.968H67.4065V24.256ZM70.9745 18.608H73.1185V29.44H70.9745V18.608ZM63.3265 31.456H73.4545V33.168H63.3265V31.456ZM63.3265 28.384H65.4545V32.352H63.3265V28.384ZM64.7985 19.488C65.5345 19.488 66.1958 19.6533 66.7825 19.984C67.3798 20.304 67.8492 20.752 68.1905 21.328C68.5425 21.904 68.7185 22.5653 68.7185 23.312C68.7185 24.048 68.5425 24.7093 68.1905 25.296C67.8492 25.872 67.3798 26.3253 66.7825 26.656C66.1958 26.9867 65.5345 27.152 64.7985 27.152C64.0732 27.152 63.4118 26.9867 62.8145 26.656C62.2278 26.3253 61.7585 25.872 61.4065 25.296C61.0652 24.7093 60.8945 24.048 60.8945 23.312C60.8945 22.5653 61.0652 21.904 61.4065 21.328C61.7585 20.752 62.2278 20.304 62.8145 19.984C63.4118 19.6533 64.0732 19.488 64.7985 19.488ZM64.7985 21.344C64.4465 21.344 64.1265 21.424 63.8385 21.584C63.5505 21.744 63.3212 21.9733 63.1505 22.272C62.9905 22.56 62.9105 22.9067 62.9105 23.312C62.9105 23.728 62.9905 24.0853 63.1505 24.384C63.3212 24.672 63.5505 24.896 63.8385 25.056C64.1265 25.2053 64.4465 25.28 64.7985 25.28C65.1612 25.28 65.4812 25.2053 65.7585 25.056C66.0465 24.896 66.2705 24.672 66.4305 24.384C66.6012 24.0853 66.6865 23.728 66.6865 23.312C66.6865 22.9067 66.6012 22.56 66.4305 22.272C66.2705 21.9733 66.0465 21.744 65.7585 21.584C65.4812 21.424 65.1612 21.344 64.7985 21.344ZM85.6933 18.592H87.8373V26.032H85.6933V18.592ZM80.7653 19.152H83.0853C83.0853 20.464 82.8293 21.6053 82.3173 22.576C81.8159 23.536 81.0639 24.3307 80.0613 24.96C79.0586 25.5787 77.8106 26.0533 76.3173 26.384L75.5973 24.672C76.8453 24.4267 77.8426 24.0907 78.5893 23.664C79.3466 23.2267 79.8959 22.7253 80.2373 22.16C80.5893 21.584 80.7653 20.9707 80.7653 20.32V19.152ZM76.4613 19.152H81.6453V20.848H76.4613V19.152ZM82.5093 20.448H85.9653V22.064H82.5093V20.448ZM82.4133 23.328H85.9013V24.928H82.4133V23.328ZM78.0453 26.576H87.8373V30.672H80.1893V32.496H78.0613V29.088H85.6933V28.24H78.0453V26.576ZM78.0613 31.6H88.1253V33.28H78.0613V31.6ZM99.644 18.608H101.772V33.424H99.644V18.608ZM101.292 24.384H103.9V26.144H101.292V24.384ZM90.076 20.784H98.716V22.48H90.076V20.784ZM94.428 23.328C95.1427 23.328 95.7827 23.4827 96.348 23.792C96.9133 24.0907 97.356 24.5013 97.676 25.024C98.0067 25.5467 98.172 26.1547 98.172 26.848C98.172 27.5413 98.0067 28.1547 97.676 28.688C97.356 29.2107 96.9133 29.6267 96.348 29.936C95.7933 30.2347 95.1533 30.384 94.428 30.384C93.7133 30.384 93.068 30.2347 92.492 29.936C91.9267 29.6267 91.4787 29.2107 91.148 28.688C90.828 28.1547 90.668 27.5413 90.668 26.848C90.668 26.1547 90.828 25.5467 91.148 25.024C91.4787 24.5013 91.9267 24.0907 92.492 23.792C93.068 23.4827 93.7133 23.328 94.428 23.328ZM94.428 25.056C94.0867 25.056 93.788 25.1253 93.532 25.264C93.276 25.4027 93.0733 25.6053 92.924 25.872C92.7747 26.1387 92.7 26.464 92.7 26.848C92.7 27.2213 92.7747 27.5467 92.924 27.824C93.0733 28.0907 93.276 28.2987 93.532 28.448C93.788 28.5867 94.0867 28.656 94.428 28.656C94.7587 28.656 95.052 28.5867 95.308 28.448C95.564 28.2987 95.7667 28.0907 95.916 27.824C96.0653 27.5467 96.14 27.2213 96.14 26.848C96.14 26.464 96.0653 26.1387 95.916 25.872C95.7667 25.6053 95.564 25.4027 95.308 25.264C95.052 25.1253 94.7587 25.056 94.428 25.056ZM93.34 18.848H95.484V21.44H93.34V18.848ZM115.083 18.592H117.211V33.408H115.083V18.592ZM110.715 20.128H112.811C112.811 21.2587 112.699 22.3413 112.475 23.376C112.261 24.4 111.899 25.3653 111.387 26.272C110.885 27.1787 110.192 28.0213 109.307 28.8C108.432 29.568 107.339 30.272 106.027 30.912L104.907 29.232C106.336 28.5387 107.472 27.776 108.315 26.944C109.168 26.1013 109.781 25.152 110.155 24.096C110.528 23.0293 110.715 21.8347 110.715 20.512V20.128ZM105.707 20.128H111.707V21.824H105.707V20.128Z" fill="white"/>
<defs>
<linearGradient id="paint0_linear_670_1760" x1="0" y1="26" x2="137" y2="26" gradientUnits="userSpaceOnUse">
<stop stop-color="#A66EE0"/>
<stop offset="1" stop-color="#735AE1"/>
</linearGradient>
<clipPath id="clip0_670_1760">
<rect width="32" height="32" fill="white" transform="translate(16 10)"/>
</clipPath>
</defs>
</svg>
