<svg width="60" height="61" viewBox="0 0 60 61" fill="none" xmlns="http://www.w3.org/2000/svg">
<rect y="0.5" width="60" height="60" rx="14" fill="url(#paint0_linear_707_1763)"/>
<path fill-rule="evenodd" clip-rule="evenodd" d="M40.3917 39.4882C40.3917 37.9883 44.9565 36.4869 44.9565 30.4879C44.9565 24.4889 40.3917 22.9889 40.3917 21.489C40.3917 19.9891 41.1531 19.9891 41.9135 19.9891C42.6738 19.9891 44.5384 21.5172 45.7173 22.9889C47.6396 25.3886 48 28.4988 48 30.4879C48 32.4769 47.6399 35.5881 45.7173 37.9883C44.5384 39.46 42.6738 40.9881 41.9135 40.9881C41.1531 40.9881 40.3917 40.9881 40.3917 39.4882Z" fill="white"/>
<path fill-rule="evenodd" clip-rule="evenodd" d="M37.2151 16.3841C37.1269 16.1901 36.9978 16.0169 36.8365 15.8758C36.6742 15.7345 36.4832 15.629 36.2762 15.5662C36.0692 15.5035 35.8511 15.485 35.6363 15.5121L25.1741 20.0005L15.6802 19.9887C14.9411 20.0763 14.2602 20.4599 13.7663 21.0089C13.2724 21.5579 12.9998 22.2663 13 23V38.1679C12.9993 38.8991 13.2695 39.6054 13.7599 40.154C14.2503 40.7026 14.9271 40.8964 15.6631 40.9878L25.1741 40.9881L35.6363 45.4882C35.8505 45.5148 36.068 45.4962 36.2744 45.4335C36.4808 45.3709 36.6713 45.2657 36.8332 45.1248C36.9952 44.984 37.1248 44.8109 37.2136 44.6168C37.3024 44.4228 37.3483 44.2124 37.3482 43.9996V17.0008C37.3487 16.7882 37.3033 16.578 37.2151 16.3841ZM25.1741 23.0003L34.3047 19.2394V41.7384L25.1741 37.9883L16.0435 37.9879V23L25.1741 23.0003Z" fill="white"/>
<defs>
<linearGradient id="paint0_linear_707_1763" x1="0" y1="30.5" x2="60" y2="30.5" gradientUnits="userSpaceOnUse">
<stop stop-color="#A66EE0"/>
<stop offset="1" stop-color="#735AE1"/>
</linearGradient>
</defs>
</svg>
