<svg width="150" height="150" viewBox="0 0 150 150" fill="none" xmlns="http://www.w3.org/2000/svg">
<path d="M67.1848 115.071C67.1911 115.121 67.208 115.223 67.2486 115.359C67.329 115.629 67.5021 116.034 67.8847 116.462C68.6031 117.264 70.4487 118.562 75.133 118.562C79.7323 118.562 81.5366 117.271 82.239 116.474C82.6151 116.047 82.7872 115.641 82.8674 115.368C82.9079 115.23 82.9245 115.127 82.931 115.075C82.9331 115.058 82.9342 115.047 82.9345 115.044C82.9343 115.046 82.9339 115.053 82.9336 115.064C82.9334 115.07 82.9334 115.077 82.9333 115.085C82.9332 115.088 82.933 115.093 82.933 115.097V115.108C82.9336 115.109 82.9463 115.11 83.2143 115.111L87.1518 115.113C87.4211 115.114 87.4325 115.115 87.433 115.116V115.129C87.433 115.134 87.4328 115.141 87.4327 115.148C87.4325 115.161 87.4323 115.176 87.4318 115.192C87.4309 115.225 87.4292 115.264 87.4266 115.308C87.4214 115.396 87.4122 115.508 87.3958 115.638C87.363 115.898 87.301 116.241 87.1846 116.637C86.9507 117.433 86.4945 118.452 85.6146 119.45C83.8044 121.503 80.5835 123.062 75.133 123.062C69.6176 123.062 66.363 121.509 64.5313 119.462C63.6391 118.465 63.1745 117.445 62.9361 116.646C62.8175 116.248 62.7546 115.904 62.7211 115.642C62.7043 115.511 62.6948 115.399 62.6895 115.31C62.6868 115.265 62.6851 115.226 62.6842 115.193C62.6837 115.177 62.6835 115.161 62.6833 115.148C62.6832 115.141 62.6831 115.135 62.683 115.129V115.116C62.683 115.115 62.683 115.114 62.9643 115.113L66.9018 115.111C67.167 115.11 67.1821 115.109 67.183 115.108V115.097C67.183 115.092 67.1828 115.088 67.1827 115.084C67.1826 115.076 67.1826 115.069 67.1824 115.063C67.1821 115.052 67.1817 115.045 67.1815 115.042C67.1818 115.045 67.1828 115.056 67.1848 115.071Z" fill="url(#paint0_linear_159_3406)"/>
<path d="M54.1942 92.8937C54.2003 92.8938 54.2047 92.8939 54.208 92.894C54.2113 92.8939 54.2157 92.8938 54.2218 92.8937C54.235 92.8934 54.2577 92.8931 54.283 92.8931H55.783V93.0437C56.792 93.2507 57.774 93.7148 58.5404 94.6855C59.3615 95.7254 59.7648 97.1497 59.9127 98.9118H59.983V100.412C59.983 100.448 59.9825 100.482 59.9821 100.507C59.9818 100.531 59.9817 100.547 59.9815 100.562C59.9817 100.577 59.9818 100.593 59.9821 100.617C59.9825 100.642 59.983 100.676 59.983 100.712V102.212H59.9127C59.7648 103.974 59.3615 105.398 58.5404 106.438C57.774 107.409 56.7919 107.873 55.783 108.08V108.231H54.283C54.2577 108.231 54.235 108.23 54.2218 108.23C54.2157 108.23 54.2113 108.23 54.208 108.23C54.2047 108.23 54.2003 108.23 54.1942 108.23C54.181 108.23 54.1583 108.231 54.133 108.231H52.633V108.08C51.6241 107.873 50.642 107.409 49.8756 106.438C49.0545 105.398 48.6512 103.974 48.5033 102.212H48.433V100.712C48.433 100.672 48.4339 100.605 48.4342 100.571L48.433 100.412V98.9118H48.5033C48.6512 97.1497 49.0545 95.7254 49.8756 94.6855C50.642 93.7148 51.6241 93.2507 52.633 93.0437V92.8931H54.133C54.1583 92.8931 54.181 92.8934 54.1942 92.8937Z" fill="url(#paint1_linear_159_3406)"/>
<path d="M97.633 93.0437C98.641 93.2505 99.6224 93.7138 100.389 94.6828C101.211 95.7232 101.615 97.1486 101.763 98.9118H101.833V100.412L101.833 100.569C101.833 100.619 101.833 100.667 101.833 100.712V102.212H101.764C101.616 103.969 101.214 105.397 100.389 106.441C99.6225 107.409 98.641 107.873 97.633 108.08V108.231H94.483V108.081C93.4749 107.873 92.4932 107.409 91.7276 106.441C90.9051 105.4 90.5014 103.975 90.3533 102.212H90.283V100.712C90.283 100.668 90.2831 100.62 90.2833 100.571C90.283 100.517 90.283 100.462 90.283 100.412V98.9118H90.3533C90.5014 97.1486 90.9052 95.7235 91.7276 94.6831C92.4938 93.7142 93.4751 93.2505 94.483 93.0437V92.8931H97.633V93.0437Z" fill="url(#paint2_linear_159_3406)"/>
<path d="M57.4866 53.7636C56.9154 53.982 53.833 56.1543 53.833 63.2118C53.833 67.5662 55.1184 70.8247 57.2016 72.999C59.2787 75.1671 62.3759 76.495 66.4699 76.5621L66.3961 81.0615C61.3402 80.9786 57.0123 79.3064 53.952 76.1121C50.8977 72.924 49.333 68.4572 49.333 63.2118C49.333 54.9096 53.0505 50.6417 55.8794 49.5601L57.4866 53.7636Z" fill="url(#paint3_linear_159_3406)"/>
<path d="M74.1706 49.9368L74.8954 53.8069C74.9472 54.0807 74.9485 54.083 74.9493 54.0829L74.959 54.0812C74.9631 54.0804 74.9671 54.0795 74.9707 54.0788C74.978 54.0773 74.9846 54.0762 74.99 54.075C75.0008 54.0727 75.0081 54.071 75.012 54.07C75.009 54.0709 75.004 54.0724 74.9974 54.0744C74.9631 54.0849 74.8851 54.1109 74.7776 54.1608C74.5634 54.2603 74.2349 54.4523 73.8896 54.8045C73.2456 55.4615 72.283 56.9452 72.283 60.2118C72.2831 62.9611 73.6544 66.0279 75.9694 68.4422C78.2764 70.848 81.2845 72.3618 84.283 72.3618V76.8618C79.7816 76.8618 75.6646 74.6258 72.7216 71.5567C69.7867 68.4961 67.7831 64.3625 67.783 60.2118C67.783 55.9786 69.0705 53.2922 70.6764 51.6542C71.456 50.859 72.2526 50.3722 72.8821 50.0798C73.1963 49.9339 73.4701 49.8358 73.6819 49.771C73.788 49.7386 73.8792 49.7141 73.9529 49.6963C73.9897 49.6874 74.0223 49.68 74.0502 49.674C74.0642 49.671 74.0772 49.6684 74.0889 49.6661C74.0946 49.665 74.1001 49.6639 74.1053 49.6629C74.1079 49.6624 74.1105 49.6619 74.1129 49.6614C74.1141 49.6612 74.1161 49.661 74.1167 49.6608C74.1176 49.661 74.1201 49.67 74.1706 49.9368Z" fill="url(#paint4_linear_159_3406)"/>
<path d="M90.433 54.9618C90.433 58.6826 91.1322 60.6305 92.1059 61.6863C93.0341 62.6928 94.6586 63.3618 97.783 63.3618V67.8618C94.1575 67.8618 90.9819 67.1057 88.7977 64.7373C86.6589 62.4182 85.933 59.0408 85.933 54.9618H90.433Z" fill="url(#paint5_linear_159_3406)"/>
<path fill-rule="evenodd" clip-rule="evenodd" d="M88.8615 18.905C90.9134 18.6779 92.7803 18.695 94.2065 18.992C94.897 19.1358 95.6843 19.3846 96.3378 19.8633C97.0577 20.3906 97.792 21.3692 97.6134 22.7089C97.4925 23.6158 96.9829 24.3687 96.5798 24.8631C96.1241 25.422 95.5363 25.9717 94.8715 26.4861C93.5373 27.5185 91.7305 28.5332 89.6153 29.26C86.2484 30.4169 81.9794 30.8782 77.533 29.3985V36.2411C85.9515 36.4491 97.4756 37.8935 107.273 44.3104C117.855 51.2415 126.012 63.6931 126.554 85.3438C127.678 85.5353 129.137 85.895 130.608 86.5834L130.919 86.734L131.076 86.8137C132.695 87.6512 134.359 88.9464 135.502 90.9346L135.612 91.1306C136.726 93.1722 137.182 95.7139 136.761 98.7873C136.324 101.978 135.107 104.378 133.38 106.095C131.676 107.79 129.631 108.667 127.77 109.104C125.915 109.54 124.157 109.562 122.89 109.485C122.787 109.479 122.688 109.471 122.591 109.464C121.864 111.121 121.049 112.659 120.157 114.086C116.276 120.298 111.017 124.285 105.434 126.821L104.892 127.062C94.7766 131.472 83.5797 131.278 77.3367 131.185C76.5053 131.173 75.7735 131.162 75.133 131.162C74.4926 131.162 73.7607 131.173 72.9293 131.185C66.7839 131.277 55.8381 131.466 45.8487 127.265L45.3738 127.062C39.5895 124.54 34.1152 120.499 30.1087 114.086C29.2169 112.659 28.402 111.121 27.6744 109.464C27.6536 109.465 27.6328 109.467 27.6117 109.469L27.3765 109.485C26.1093 109.562 24.3506 109.54 22.4962 109.104C20.6349 108.667 18.5898 107.79 16.8855 106.095C15.159 104.378 13.9421 101.978 13.505 98.7873C13.0704 95.6148 13.5702 93.0088 14.7636 90.9346L14.8758 90.7444C16.0525 88.8007 17.7304 87.5422 19.3468 86.734L19.6579 86.5834C21.1289 85.895 22.5882 85.5353 23.7117 85.3438C24.2535 63.6931 32.411 51.2415 42.9932 44.3104C52.9073 37.8169 64.5898 36.4158 73.033 36.2347V29.296C68.479 30.8987 64.0935 30.4428 60.651 29.26C58.5359 28.5332 56.729 27.5185 55.3948 26.4861C54.73 25.9717 54.1422 25.422 53.6865 24.8631C53.2834 24.3687 52.7739 23.6159 52.6529 22.7089C52.4743 21.3691 53.2086 20.3906 53.9285 19.8633C54.582 19.3846 55.3694 19.1358 56.0599 18.992C57.486 18.695 59.3529 18.6779 61.4048 18.905C65.257 19.3314 70.2239 20.6713 75.133 23.2901C80.0422 20.6712 85.0093 19.3314 88.8615 18.905ZM75.133 41.0118C66.8572 41.0118 55.1827 42.0645 45.6231 48.3258C36.2536 54.4627 28.483 65.8973 28.483 87.6618C28.483 98.4228 30.7622 106.075 34.1792 111.543C37.5883 117 42.2393 120.459 47.2922 122.662L47.7167 122.844C56.648 126.599 66.6129 126.478 72.8525 126.386L72.9407 126.384C73.0145 126.383 73.0878 126.382 73.1605 126.381C73.8677 126.371 74.5327 126.362 75.133 126.362C75.7333 126.362 76.3983 126.371 77.1056 126.381C77.1783 126.382 77.2516 126.383 77.3253 126.384L77.4135 126.386C83.7522 126.479 93.9352 126.603 102.974 122.662L103.446 122.452C108.316 120.241 112.784 116.829 116.087 111.543C119.504 106.075 121.783 98.4228 121.783 87.6618C121.783 65.8973 114.012 54.4627 104.643 48.3258C95.0833 42.0646 83.4088 41.0118 75.133 41.0118ZM23.7258 90.2367C23.0117 90.4057 22.2338 90.6571 21.4937 91.0272C20.4581 91.545 19.5719 92.255 18.9803 93.2326L18.924 93.3281C18.3457 94.3333 17.9454 95.834 18.2607 98.1363C18.5736 100.42 19.3816 101.808 20.2705 102.692C21.1819 103.599 22.3433 104.138 23.5939 104.432C24.3987 104.621 25.2048 104.699 25.9359 104.716C24.6803 100.531 23.9086 95.7327 23.7258 90.2367ZM126.54 90.2367C126.357 95.7327 125.585 100.531 124.33 104.716C125.061 104.699 125.867 104.621 126.672 104.432C127.923 104.138 129.084 103.599 129.996 102.692C130.884 101.808 131.692 100.42 132.005 98.1363C132.311 95.906 131.945 94.428 131.396 93.4239L131.342 93.3281C130.751 92.301 129.841 91.5617 128.772 91.0272C128.032 90.6571 127.254 90.4057 126.54 90.2367ZM58.5923 23.2512C59.4942 23.8764 60.6963 24.5171 62.1132 25.004C64.2413 25.7352 66.7752 26.0979 69.4576 25.6043C66.3155 24.3424 63.3204 23.6446 60.9097 23.3777C60.0225 23.2795 59.2457 23.2433 58.5923 23.2512ZM91.674 23.2512C91.0206 23.2433 90.2438 23.2795 89.3566 23.3777C86.946 23.6446 83.9509 24.3424 80.8087 25.6043C83.4911 26.0979 86.025 25.7353 88.1531 25.004C89.57 24.5171 90.7721 23.8764 91.674 23.2512Z" fill="url(#paint6_linear_159_3406)"/>
<path fill-rule="evenodd" clip-rule="evenodd" d="M90 0C123.137 0 150 26.8629 150 60V90C150 123.008 123.346 149.79 90.3879 149.999L90 150H60L59.6118 149.999C26.7826 149.791 0.209009 123.217 0.00117188 90.3879L0 90V60C0 26.8629 26.8629 4.83199e-07 60 0H90ZM60 3C28.5198 3 3 28.5198 3 60V90C3 121.48 28.5198 147 60 147H90C121.48 147 147 121.48 147 90V60C147 28.5198 121.48 3 90 3H60Z" fill="url(#paint7_linear_159_3406)"/>
<defs>
<linearGradient id="paint0_linear_159_3406" x1="0" y1="75" x2="150" y2="75" gradientUnits="userSpaceOnUse">
<stop stop-color="#A66EE0"/>
<stop offset="1" stop-color="#735AE1"/>
</linearGradient>
<linearGradient id="paint1_linear_159_3406" x1="0" y1="75" x2="150" y2="75" gradientUnits="userSpaceOnUse">
<stop stop-color="#A66EE0"/>
<stop offset="1" stop-color="#735AE1"/>
</linearGradient>
<linearGradient id="paint2_linear_159_3406" x1="0" y1="75" x2="150" y2="75" gradientUnits="userSpaceOnUse">
<stop stop-color="#A66EE0"/>
<stop offset="1" stop-color="#735AE1"/>
</linearGradient>
<linearGradient id="paint3_linear_159_3406" x1="0" y1="75" x2="150" y2="75" gradientUnits="userSpaceOnUse">
<stop stop-color="#A66EE0"/>
<stop offset="1" stop-color="#735AE1"/>
</linearGradient>
<linearGradient id="paint4_linear_159_3406" x1="0" y1="75" x2="150" y2="75" gradientUnits="userSpaceOnUse">
<stop stop-color="#A66EE0"/>
<stop offset="1" stop-color="#735AE1"/>
</linearGradient>
<linearGradient id="paint5_linear_159_3406" x1="0" y1="75" x2="150" y2="75" gradientUnits="userSpaceOnUse">
<stop stop-color="#A66EE0"/>
<stop offset="1" stop-color="#735AE1"/>
</linearGradient>
<linearGradient id="paint6_linear_159_3406" x1="0" y1="75" x2="150" y2="75" gradientUnits="userSpaceOnUse">
<stop stop-color="#A66EE0"/>
<stop offset="1" stop-color="#735AE1"/>
</linearGradient>
<linearGradient id="paint7_linear_159_3406" x1="0" y1="75" x2="150" y2="75" gradientUnits="userSpaceOnUse">
<stop stop-color="#A66EE0"/>
<stop offset="1" stop-color="#735AE1"/>
</linearGradient>
</defs>
</svg>
